<svg width="375" height="645" viewBox="0 0 375 645" fill="none" xmlns="http://www.w3.org/2000/svg">
<path opacity="0.02" d="M479.625 360.74V474.219L382.25 531.146L284.875 588.073L236.187 616.536L187.5 645L138.812 616.536L90.1246 588.073L-7.25041 531.146L-105 474.219V360.74L-7.62493 304.187V417.667L89.7501 474.594L138.438 503.057L187.125 531.521L235.813 503.057L284.5 474.594L381.875 417.667V303.813L479.625 360.74ZM479.25 133.406L381.875 76.4794L284.5 19.5524L235.813 -8.53652L187.125 -37L138.438 -8.53652L89.7501 19.927L-7.62493 76.4794L-105 133.406V246.886L-7.62493 190.333L89.7501 133.406L138.438 105.317V389.203L187.125 417.667L235.813 389.203V104.943L284.5 133.406L381.875 190.333L479.25 247.26V133.406Z" fill="white"/>
</svg>
