<svg width="197" height="229" fill="none" xmlns="http://www.w3.org/2000/svg"><path d="M139.667 0H29.892v100.703h14.774V14.77h80.226v56.392h56.463v143.125h-56.463V229h71.179V56.391v.058L139.667 0zm-.058 56.391V20.84l35.618 35.552h-35.618zM0 114.5V229h110.118V114.5H0zm95.344 95.722L68.03 182.914l-19.012 19.007-11.51-11.508-22.849 22.843V129.27h80.628v80.952h.057zM81.83 161.96c0 4.351-3.55 7.901-7.902 7.901s-7.903-3.55-7.903-7.901 3.55-7.9 7.903-7.9c4.352.057 7.902 3.549 7.902 7.9z" fill="#fff"/></svg>