<svg width="375" height="645" fill="none" xmlns="http://www.w3.org/2000/svg"><path opacity=".02" d="M479.625 360.74v113.479l-97.375 56.927-97.375 56.927-48.688 28.463L187.5 645l-48.688-28.464-48.687-28.463-97.375-56.927-97.75-56.927V360.74l97.375-56.553v113.48l97.375 56.927 48.688 28.463 48.687 28.464 48.688-28.464 48.687-28.463 97.375-56.927V303.813l97.75 56.927zm-.375-227.334l-97.375-56.927L284.5 19.552 235.813-8.537 187.125-37 138.438-8.537 89.75 19.927-7.625 76.479-105 133.406v113.48l97.375-56.553 97.375-56.927 48.688-28.089v283.886l48.687 28.464 48.688-28.464v-284.26l48.687 28.463 97.375 56.927 97.375 56.927V133.406z" fill="#fff"/></svg>